<svg width="199" height="62" viewBox="0 0 199 62" fill="none" xmlns="http://www.w3.org/2000/svg">
<path d="M91.5142 20.4408V31.9184H95.9911V34.5952H88.0859V20.4408H91.5142Z" fill="#113E60"/>
<path d="M102.727 34.7169C99.4596 34.7169 96.959 32.4862 96.959 28.9172C96.959 25.3482 99.4999 23.1176 102.767 23.1176C106.034 23.1176 108.575 25.3482 108.575 28.9172C108.575 32.5268 105.993 34.7169 102.727 34.7169ZM102.727 31.7562C103.936 31.7562 105.106 30.8639 105.106 28.9578C105.106 27.0516 103.977 26.1593 102.767 26.1593C101.517 26.1593 100.428 27.0516 100.428 28.9578C100.428 30.8639 101.476 31.7562 102.727 31.7562Z" fill="#113E60"/>
<path d="M114.947 34.7168C111.963 34.7168 109.946 33.054 109.785 30.8639H113.173C113.253 31.6345 113.939 32.1617 114.907 32.1617C115.794 32.1617 116.238 31.7562 116.238 31.2695C116.238 29.4444 110.148 30.7828 110.148 26.646C110.148 24.7398 111.761 23.1581 114.705 23.1581C117.569 23.1581 119.182 24.7804 119.424 26.9704H116.278C116.198 26.1999 115.593 25.7132 114.625 25.7132C113.818 25.7132 113.374 26.0376 113.374 26.5649C113.374 28.3494 119.424 27.0921 119.464 31.2695C119.464 33.2568 117.73 34.7168 114.947 34.7168Z" fill="#113E60"/>
<path d="M125.797 20.4408H134.952V23.1987H129.225V26.1593H133.5V28.8361H129.225V34.5546H125.797V20.4408Z" fill="#113E60"/>
<path d="M141.002 23.1581C142.656 23.1581 143.866 23.9287 144.43 24.902V23.3203H147.859V34.5546H144.43V32.9729C143.825 33.9462 142.615 34.7168 140.962 34.7168C138.219 34.7168 136.041 32.4456 136.041 28.9172C136.081 25.3887 138.259 23.1581 141.002 23.1581ZM142.01 26.1593C140.72 26.1593 139.55 27.1327 139.55 28.9172C139.55 30.7017 140.72 31.7156 142.01 31.7156C143.301 31.7156 144.471 30.7422 144.471 28.9172C144.471 27.0921 143.301 26.1593 142.01 26.1593Z" fill="#113E60"/>
<path d="M153.788 34.5546H150.359V23.3203H153.788V25.1859C154.554 24.0097 155.804 23.1986 157.296 23.1986V26.8487H156.369C154.755 26.8487 153.788 27.4165 153.788 29.3633V34.5546Z" fill="#113E60"/>
<path d="M164.032 34.7169C160.765 34.7169 158.264 32.4862 158.264 28.9172C158.264 25.3482 160.805 23.1176 164.072 23.1176C167.339 23.1176 169.88 25.3482 169.88 28.9172C169.88 32.5268 167.299 34.7169 164.032 34.7169ZM164.032 31.7562C165.242 31.7562 166.412 30.8639 166.412 28.9578C166.412 27.0516 165.282 26.1593 164.072 26.1593C162.822 26.1593 161.733 27.0516 161.733 28.9578C161.733 30.8639 162.782 31.7562 164.032 31.7562Z" fill="#113E60"/>
<path d="M171.695 19.6702H175.123V34.5546H171.695V19.6702Z" fill="#113E60"/>
<path d="M182.544 34.7169C179.277 34.7169 176.898 32.4862 176.898 28.9172C176.898 25.3482 179.237 23.1176 182.544 23.1176C185.811 23.1176 188.11 25.3076 188.11 28.7144C188.11 29.0389 188.11 29.3633 188.07 29.7283H180.326C180.447 31.1884 181.334 31.8779 182.464 31.8779C183.432 31.8779 183.956 31.3912 184.238 30.7828H187.868C187.304 33.054 185.327 34.7169 182.544 34.7169ZM180.326 27.8627H184.601C184.601 26.646 183.633 25.916 182.504 25.916C181.415 25.916 180.528 26.6055 180.326 27.8627Z" fill="#113E60"/>
<path d="M194.483 34.7168C191.498 34.7168 189.482 33.054 189.32 30.8639H192.708C192.789 31.6345 193.474 32.1617 194.442 32.1617C195.33 32.1617 195.773 31.7562 195.773 31.2695C195.773 29.4444 189.683 30.7828 189.683 26.646C189.683 24.7398 191.296 23.1581 194.241 23.1581C197.104 23.1581 198.718 24.7804 198.96 26.9704H195.814C195.733 26.1999 195.128 25.7132 194.16 25.7132C193.353 25.7132 192.91 26.0376 192.91 26.5649C192.91 28.3494 198.96 27.0921 199 31.2695C199 33.2568 197.266 34.7168 194.483 34.7168Z" fill="#113E60"/>
<path d="M97.5642 52.4402H90.506L89.1347 56.1715H87.4811L93.168 40.7192H94.9426L100.589 56.1715H98.9355L97.5642 52.4402ZM94.0149 42.666L90.9497 51.1018H97.0802L94.0149 42.666Z" fill="#113E60"/>
<path d="M109.422 43.7611C112.729 43.7611 115.189 46.1945 115.189 50.0069C115.189 53.8192 112.729 56.3338 109.422 56.3338C107.002 56.3338 105.308 54.9954 104.582 53.4542V61.8901H103.049V43.9233H104.582V46.6001C105.308 45.0589 107.002 43.7611 109.422 43.7611ZM109.099 45.0995C106.639 45.0995 104.582 46.9651 104.582 50.0069C104.582 53.0487 106.639 54.9143 109.099 54.9143C111.64 54.9143 113.616 53.0487 113.616 49.9663C113.616 46.884 111.64 45.0995 109.099 45.0995Z" fill="#113E60"/>
<path d="M123.175 43.7611C125.635 43.7611 127.289 45.0995 127.975 46.6407V43.9639H129.548V56.1715H127.975V53.4542C127.249 55.036 125.555 56.3338 123.135 56.3338C119.828 56.3338 117.367 53.8598 117.367 50.0069C117.367 46.154 119.828 43.7611 123.175 43.7611ZM123.458 45.0995C120.917 45.0995 118.94 46.884 118.94 50.0069C118.94 53.0892 120.917 54.9548 123.458 54.9548C125.958 54.9548 127.975 53.0892 127.975 50.0474C127.975 47.0057 125.918 45.0995 123.458 45.0995Z" fill="#113E60"/>
<path d="M134.629 56.1309H133.057V43.9232H134.629V46.1133C135.315 44.6127 136.686 43.7205 138.784 43.7205V45.3427H138.38C136.364 45.3427 134.629 46.2755 134.629 49.3173V56.1309Z" fill="#113E60"/>
<path d="M141.567 45.2617H139.873V43.9233H141.567V40.8409H143.14V43.9233H146.487V45.2617H143.14V52.8458C143.14 54.3464 143.664 54.8331 145.035 54.8331H146.447V56.1715H144.793C142.696 56.1715 141.526 55.2792 141.526 52.8458V45.2617H141.567Z" fill="#113E60"/>
<path d="M155.159 40.5165H156.732V56.1715H155.159V40.5165Z" fill="#113E60"/>
<path d="M161.773 40.5165V54.8737H167.38V56.1309H160.241V40.5165H161.773Z" fill="#113E60"/>
<path d="M176.575 56.2932C172.219 56.2932 168.872 53.0081 168.872 48.3034C168.872 43.6394 172.219 40.3137 176.575 40.3137C180.971 40.3137 184.279 43.6394 184.279 48.3034C184.279 53.0081 180.971 56.2932 176.575 56.2932ZM176.575 54.9142C180.003 54.9142 182.665 52.3997 182.665 48.3034C182.665 44.2072 180.003 41.6927 176.575 41.6927C173.147 41.6927 170.485 44.2072 170.485 48.3034C170.485 52.3997 173.147 54.9142 176.575 54.9142Z" fill="#113E60"/>
<path d="M73.9696 0C45.4143 7.66527 23.7558 29.85 19.3596 57.1448H0C5.32388 25.5509 36.2185 1.09504 73.9696 0Z" fill="#113E60"/>
<path d="M73.8082 2.83899C65.9434 16.5878 60.0549 34.0679 58.8853 57.0232H73.8082V2.83899Z" fill="#BFA58A"/>
<path d="M49.4072 32.2023C47.2696 29.6472 43.5186 27.2949 40.4534 27.2137C34.4035 36.0146 30.2493 46.235 28.636 57.2665H54.5697V57.1448V56.9015C55.0537 50.2907 55.9814 44.0043 57.2317 38.0425C55.9007 37.6369 52.8758 36.3796 49.4072 32.2023Z" fill="#BFA58A"/>
<path d="M52.4724 29.6066C55.1747 32.8106 57.3526 33.8245 58.1593 34.0678C61.5875 20.2379 67.0727 8.76028 73.8082 1.21667C61.6682 5.75906 51.1011 13.546 43.1556 23.5636C46.7452 24.4558 50.2541 26.9298 52.4724 29.6066Z" fill="#BFA58A"/>
</svg>
